<svg xmlns="http://www.w3.org/2000/svg" fill="none" viewBox="0 0 30 22">
  <g clip-path="url(#ycm3bfBYSka)">
    <path fill-rule="evenodd" clip-rule="evenodd" d="M.791 9.393l.561 7.045c.076.728.231 1.196.45 1.454.174.204.41.262.694.21a.37.37 0 01.068-.007l2.712-.001.04.002c.38.006.643-.108.809-.324.192-.251.286-.647.3-1.159V8.846a.388.388 0 01-.014-.138c-.043-.248-.15-.415-.307-.519-.219-.143-.547-.198-.949-.193h-.004v.001H1.709c-.355.017-.626.103-.779.288-.163.199-.221.542-.142 1.073l.003.035zm21.939-.3c0-.124.007-.243.022-.354l-1.275-.864a33.148 33.148 0 01-.586-.41 17.398 17.398 0 00-1.05-.707c.126-.22.236-.45.33-.69.396.237.776.507 1.15.773.187.132.373.264.573.4l1.134.765a1.41 1.41 0 01.198-.222c.324-.296.788-.44 1.383-.44v-.002h3.229c.675-.002 1.225.123 1.605.42.423.331.622.834.537 1.556l-.713 7.478c-.052.667-.226 1.19-.536 1.552-.33.384-.79.573-1.391.548h-2.904a1.472 1.472 0 01-1.04-.323 1.986 1.986 0 01-.525-.697h-1.005c.136.4.129.782.02 1.119a1.832 1.832 0 01-.603.866c-.27.217-.6.366-.944.423-.337.056-.69.026-1.017-.112-.381.403-.782.658-1.2.774a2.07 2.07 0 01-1.276-.06c-.409.46-.86.748-1.359.857-.507.112-1.045.034-1.616-.238a2.352 2.352 0 01-.559.334 2.063 2.063 0 01-.866.16c-.724-.022-1.211-.239-1.6-.59-.369-.336-.619-.766-.899-1.262l-1.6-2.83h-1.24c-.073.366-.199.676-.387.921-.316.414-.781.634-1.423.62l-2.708.001c-.536.088-.996-.045-1.356-.468-.319-.374-.537-.98-.63-1.873L.6 16.485.04 9.46c-.111-.758.012-1.295.313-1.661.303-.37.76-.537 1.324-.563l.046-.003h3.428v.002c.54-.006 1.006.084 1.36.316.283.186.487.449.592.806h2.333c.586-.401 1.135-.716 1.742-.908.09-.029.18-.054.273-.077a5.151 5.151 0 00.618.664 3.59 3.59 0 00-.667.142c-.548.173-1.06.475-1.618.862a.372.372 0 01-.234.082H7.18v7.432h1.385c.147 0 .274.084.336.207l1.701 3.008c.25.44.47.821.746 1.072.26.235.598.38 1.118.397.196.005.383-.03.561-.104.109-.045.216-.107.321-.184l-1.108-2.103a.385.385 0 01.155-.515.373.373 0 01.508.157l1.205 2.285c.448.23.855.303 1.22.223.335-.073.65-.277.946-.606l-1.736-2.762a.383.383 0 01.252-.58.369.369 0 01.382.171l1.83 2.912c.32.132.629.161.922.08.28-.078.561-.26.841-.555l-1.658-3.163a.385.385 0 01.157-.517.373.373 0 01.51.158l1.715 3.273c.222.13.48.165.73.124a1.29 1.29 0 00.595-.268 1.07 1.07 0 00.356-.501 1.05 1.05 0 00-.057-.745.388.388 0 01-.03-.176.38.38 0 01-.214-.253l-3.764-6.881c-.418-.71-.795-.728-1.16-.508-.258.156-.53.408-.802.66-.165.153-.33.307-.468.421l-.668.558a2.754 2.754 0 01-1.486.619 2.149 2.149 0 01-.94-.126 1.753 1.753 0 01-.76-.548 1.85 1.85 0 01-.388-1.018.386.386 0 01.109-.301l1.815-2.19c.2.156.412.297.633.42l-1.785 2.154c.035.182.106.335.202.457a1 1 0 00.436.312c.183.07.393.096.617.077.356-.03.736-.177 1.078-.452l.657-.55c.166-.14.303-.267.44-.395.304-.28.607-.56.924-.752.736-.445 1.469-.46 2.193.772l3.714 6.79h1.262l.002-8.014zM15.44 0c2.279 0 4.125 1.873 4.125 4.182 0 2.31-1.847 4.18-4.125 4.18-2.28 0-4.125-1.872-4.125-4.18C11.316 1.87 13.163 0 15.441 0zm-1.15 3.793c.142.083.26.16.37.247.084.066.164.138.239.215.197-.293.574-.774.946-1.176.31-.335.62-.619.83-.701l.018-.007h1.101l-.15.168c-.575.648-1.029 1.185-1.436 1.753-.408.569-.773 1.17-1.171 1.95l-.093.18-.085-.184c-.205-.446-.4-.823-.644-1.158a3.828 3.828 0 00-.942-.908l-.188-.13 1.17-.268.034.02zM3.85 14.831c.358 0 .649.294.649.658 0 .363-.29.657-.649.657a.654.654 0 01-.649-.657c0-.364.29-.658.65-.658zm22.194 0c.359 0 .65.294.65.658a.653.653 0 01-.65.657.653.653 0 01-.648-.657c0-.364.29-.658.648-.658z" fill="#000"/>
  </g>
  <defs>
    <clipPath id="ycm3bfBYSka">
      <path fill="#fff" d="M0 0h30v22H0z"/>
    </clipPath>
  </defs>
</svg>
