<svg xmlns="http://www.w3.org/2000/svg" fill="none" viewBox="0 0 34 42">
  <path d="M25.855.925c10.433 1.619 7.371 19.84 7.081 28.672-.161 4.856-.88 8.611-5.04 10.295-5.468 2.214-13.527 1.476-19.104.492-3.728-.648-6.651-1.995-7.683-6.656-1.633-7.37-1.17-17.34-.462-24.852a.902.902 0 01.108-.337C.85-2.7 20.429.083 25.855.925z" fill="#000"/>
  <path d="M30.185 7.776c.022-3.095-3.18-4.08-4.9-2.176-.462.518-.677 1.308-.709 2.163.172 1.1.72 2.188 1.43 2.81 1.665 1.412 4.158-.466 4.18-2.797zm-4.76 6.022C21.75 7.09 13.455 6.429 8.996 12.373c-3.04 4.053-3.256 10.8-.967 15.592a.78.78 0 01.355.298c3.718 4.998 10.122 6.812 14.72 2.28 4.105-4.054 5.308-11.293 2.321-16.745z" fill="#fff"/>
  <path d="M10.78 22.992c1.3 4.403 5.92 7.9 9.606 5.18 7.446-5.49-1.3-20.41-7.436-13.792-2.17 1.541-3.019 5.724-2.17 8.612z" fill="#000"/>
</svg>
