<svg xmlns="http://www.w3.org/2000/svg" fill="none" viewBox="0 0 88 65">
  <g clip-path="url(#HvzOFiPCjPa)">
    <path fill-rule="evenodd" clip-rule="evenodd" d="M36.484 5.82C22.519 9.68 13.43 17.753 11.17 31.8c-.615 3.823.244.936 2.845-1.003 8.49-6.33 25.184-4.09 27.501 10.372 4.662 25.602-27.463 30.035-36.972 15.894C2.332 53.776.868 49.94.34 45.727-1.95 27.402 7.473 11.08 24.028 3.415A50.477 50.477 0 0133.792.074c1.74-.351 3.003.592 3.586 2.187.493 1.361.661 2.864-.894 3.559zm46.025 0C68.544 9.68 59.453 17.753 57.195 31.8c-.615 3.823.244.936 2.844-1.003 8.491-6.33 25.185-4.09 27.5 10.372 4.663 25.602-27.462 30.035-36.97 15.894-2.212-3.287-3.676-7.123-4.204-11.336-2.291-18.325 7.131-34.646 23.688-42.312A50.437 50.437 0 0179.817.074c1.74-.351 3.003.592 3.585 2.187.494 1.361.662 2.864-.893 3.559z" fill="#000"/>
  </g>
  <defs>
    <clipPath id="HvzOFiPCjPa">
      <path fill="#fff" d="M0 0h88v65H0z"/>
    </clipPath>
  </defs>
</svg>
